<?xml version="1.0" standalone="no"?>
<!DOCTYPE svg PUBLIC "-//W3C//DTD SVG 20010904//EN"
 "http://www.w3.org/TR/2001/REC-SVG-20010904/DTD/svg10.dtd">
<svg version="1.0" xmlns="http://www.w3.org/2000/svg"
 width="170.000000pt" height="170.000000pt" viewBox="0 0 170.000000 170.000000"
 preserveAspectRatio="xMidYMid meet">

<g transform="translate(0.000000,170.000000) scale(0.100000,-0.100000)"
fill="#000000" stroke="none">
<path d="M760 1445 c-50 -32 -60 -35 -131 -35 -69 0 -81 -3 -108 -26 -17 -14
-39 -44 -49 -67 -22 -49 -44 -71 -94 -91 -19 -9 -47 -29 -62 -46 -23 -28 -26
-40 -26 -109 0 -71 -3 -81 -35 -131 -46 -71 -46 -109 0 -180 32 -50 35 -60 34
-126 -1 -90 17 -126 81 -156 62 -29 78 -45 105 -103 33 -69 67 -88 159 -86 66
1 75 -1 126 -34 71 -46 109 -46 180 0 50 32 60 35 131 35 69 0 81 3 108 26 17
14 39 44 49 67 22 49 44 71 94 91 19 9 47 29 62 46 23 28 26 40 26 109 0 71 3
81 35 131 23 36 35 66 35 90 0 24 -12 54 -35 90 -32 50 -35 60 -35 131 0 69
-3 81 -26 109 -15 17 -43 38 -63 46 -48 20 -89 60 -96 95 -4 15 -22 42 -41 59
-32 28 -40 30 -112 30 -72 0 -82 3 -132 35 -36 23 -66 35 -90 35 -24 0 -54
-12 -90 -35z"/>
</g>
</svg>
